<?xml version="1.0" encoding="UTF-8" standalone="no"?>
<svg
   xmlns:dc="http://purl.org/dc/elements/1.1/"
   xmlns:cc="http://creativecommons.org/ns#"
   xmlns:rdf="http://www.w3.org/1999/02/22-rdf-syntax-ns#"
   xmlns:svg="http://www.w3.org/2000/svg"
   xmlns="http://www.w3.org/2000/svg"
   xmlns:sodipodi="http://sodipodi.sourceforge.net/DTD/sodipodi-0.dtd"
   xmlns:inkscape="http://www.inkscape.org/namespaces/inkscape"
   inkscape:version="1.0 (4035a4fb49, 2020-05-01)"
   sodipodi:docname="MOD_ID_Icon.svg"
   viewBox="0 0 1440 1440"
   height="1440"
   width="1440"
   xml:space="preserve"
   id="svg2"
   version="1.1"><metadata
     id="metadata8"><rdf:RDF><cc:Work
         rdf:about=""><dc:format>image/svg+xml</dc:format><dc:type
           rdf:resource="http://purl.org/dc/dcmitype/StillImage" /><dc:title></dc:title></cc:Work></rdf:RDF></metadata><defs
     id="defs6"><clipPath
       id="clipPath18"
       clipPathUnits="userSpaceOnUse"><path
         id="path16"
         d="M 0,1080 H 1080 V 0 H 0 Z" /></clipPath><clipPath
       id="clipPath154"
       clipPathUnits="userSpaceOnUse"><path
         id="path152"
         d="M 0,1080 H 1080 V 0 H 0 Z" /></clipPath></defs><sodipodi:namedview
     inkscape:current-layer="g10"
     inkscape:window-maximized="1"
     inkscape:window-y="20"
     inkscape:window-x="0"
     inkscape:cy="720"
     inkscape:cx="574.01575"
     inkscape:zoom="0.35277778"
     showgrid="false"
     id="namedview4"
     inkscape:window-height="780"
     inkscape:window-width="1280"
     inkscape:pageshadow="2"
     inkscape:pageopacity="0"
     guidetolerance="10"
     gridtolerance="10"
     objecttolerance="10"
     borderopacity="1"
     bordercolor="#666666"
     pagecolor="#ffffff" /><g
     transform="matrix(1.3333333,0,0,-1.3333333,0,1440)"
     inkscape:label="MOD_ID_LogoCircle"
     inkscape:groupmode="layer"
     id="g10"><g
       id="g148"><g
         clip-path="url(#clipPath154)"
         id="g150"><g
           transform="translate(701.4551,444.2725)"
           id="g156"><path
             id="path158"
             style="fill:none;fill-opacity:1;fill-rule:nonzero;stroke:#ffffff;stroke-width:26.54;stroke-linecap:round;stroke-linejoin:round;stroke-miterlimit:10;stroke-dasharray:none;stroke-opacity:1"
             d="m 0,0 v -160.993 c -88.803,0 -160.792,71.989 -160.792,160.792 0,-88.803 -71.989,-160.792 -160.791,-160.792 V 0" /></g><g
           transform="translate(621.0713,422.5781)"
           id="g160"><path
             id="path162"
             style="fill:none;fill-opacity:1;fill-rule:nonzero;stroke:#ffffff;stroke-width:26.54;stroke-linecap:round;stroke-linejoin:round;stroke-miterlimit:10;stroke-dasharray:none;stroke-opacity:1"
             d="m 0,0 c 88.803,0 160.792,71.989 160.792,160.792 0,88.803 -71.989,160.792 -160.792,160.792 -88.803,0 -160.792,-71.989 -160.792,-160.792 V 0 H 0" /></g><g
           transform="translate(460.2793,744.1621)"
           id="g164"><path
             id="path166"
             style="fill:none;stroke:#ffffff;stroke-width:26.54;stroke-linecap:round;stroke-linejoin:round;stroke-miterlimit:10;stroke-dasharray:none;stroke-opacity:1"
             d="m 0,0 c 88.803,0 160.792,-71.989 160.792,-160.792 0,-88.803 -71.989,-160.792 -160.792,-160.792 -88.803,0 -160.792,71.989 -160.792,160.792 C -160.792,-71.989 -88.803,0 0,0 Z" /></g><g
           transform="translate(460.2793,582.7817)"
           id="g168"><path
             id="path170"
             style="fill:#ffffff;fill-opacity:1;fill-rule:nonzero;stroke:none"
             d="M 0,0 C 0,-88.478 71.726,-160.204 160.203,-160.204 H 0 Z" /></g><g
           transform="translate(460.2793,582.7817)"
           id="g172"><path
             id="path174"
             style="fill:none;stroke:#ffffff;stroke-width:26.54;stroke-linecap:round;stroke-linejoin:round;stroke-miterlimit:10;stroke-dasharray:none;stroke-opacity:1"
             d="M 0,0 C 0,-88.478 71.726,-160.204 160.203,-160.204 H 0 Z" /></g></g></g></g></svg>
